<?xml version="1.0" encoding="UTF-8" standalone="no"?>
<!DOCTYPE svg PUBLIC "-//W3C//DTD SVG 1.1//EN" "http://www.w3.org/Graphics/SVG/1.1/DTD/svg11.dtd">
<svg width="100%" height="100%" viewBox="0 0 1371 1371" version="1.1" xmlns="http://www.w3.org/2000/svg" xmlns:xlink="http://www.w3.org/1999/xlink" xml:space="preserve" xmlns:serif="http://www.serif.com/" role="img" style="fill-rule:evenodd;clip-rule:evenodd;stroke-linejoin:round;stroke-miterlimit:2;">
    <title>Desktech</title>
    <desc>Wordmark — leopard brand palette; square padded tile — near-black background (#171717) with inverted mark colors. Mark scaled 1.38× around center for legibility.</desc>
    <defs>
        <clipPath id="logo-tile-dark-clip">
            <rect x="0" y="0" width="1371" height="1371" rx="128"/>
        </clipPath>
    </defs>
    <rect x="0" y="0" width="1371" height="1371" rx="128" fill="#171717"/>
    <g clip-path="url(#logo-tile-dark-clip)" transform="translate(685.5, 685.5) scale(1.38) translate(-685.5, -685.5) translate(0, 303)">
        <path d="M770.47,286.5C766.76,295.3 763.22,303.87 762.61,305.55L761.49,308.61L756,302.25C752.97,298.75 750.36,295.06 750.2,294.05C750.03,293.05 751.26,277.54 752.95,259.6L753.27,256.18C755.87,228.36 756.32,223.61 755.44,223.35C755.26,223.3 755.03,223.44 754.74,223.6C754.69,223.63 754.63,223.67 754.57,223.7C753.79,224.14 744.96,232.38 734.96,242C724.96,251.62 716.22,259.82 715.54,260.21C714.77,260.66 711.04,257.83 705.65,252.71L696.98,244.5L705.11,236C709.57,231.32 719.29,221.09 726.71,213.25L740.19,199L761.12,199C777.01,199 782.15,199.3 782.43,200.25C782.63,200.94 784.21,210.5 785.94,221.5L789.1,241.5L783.16,256C779.89,263.98 774.18,277.7 770.47,286.5ZM624.69,218.98C607.45,223.58 603,224.55 603,223.69C603,223.52 605.07,217.78 607.59,210.94C610.12,204.1 612.42,197.71 612.71,196.75C612.94,195.98 613.03,195.47 613.33,195.28C613.83,194.96 614.89,195.54 618.11,197.28C618.44,197.46 618.8,197.66 619.19,197.86C622.11,199.44 628.5,202.83 633.4,205.41C644.93,211.48 646.78,212.77 644.92,213.44C644.14,213.73 635.03,216.22 624.69,218.98ZM622.18,317.09C616.06,325.93 615.52,326.25 608.29,325.3C604.17,324.76 599.77,319.77 600.2,316.11C600.62,312.44 604.2,312.15 608.15,315.47C609.85,316.91 611.49,317.84 611.78,317.55C612.07,317.26 612.58,315.34 612.92,313.29L613.52,309.56L620.76,308.47C624.74,307.87 628,307.68 628,308.03C628,308.39 625.38,312.47 622.18,317.09Z" fill="#F59E0B" fill-rule="nonzero"/>
        <path d="M770.47,286.5C774.18,277.7 779.89,263.98 783.16,256L789.1,241.5L785.94,221.5C784.21,210.5 782.63,200.94 782.43,200.25C782.15,199.3 777.01,199 761.12,199L740.19,199L726.71,213.25C719.29,221.09 709.57,231.32 705.11,236L696.98,244.5L703.91,251.07L696.85,244.72L683.42,245.41C676.04,245.8 670,245.74 670,245.29C670,244.83 672.93,241.14 676.51,237.07C680.08,233 682.81,229.48 682.57,229.24C682.33,228.99 678.61,229.48 674.31,230.32C670.02,231.16 659.53,233.01 651,234.45C642.47,235.88 633.03,237.54 630,238.14C609.41,242.21 606.79,242.92 603.73,245.26C599.69,248.34 573.73,271.25 560.83,283.1L551.16,291.99L550.5,316.67L543.76,324.58C540.06,328.94 537.02,333.06 537.01,333.75C537.01,334.44 536.62,335 536.15,335C535.68,335 530.96,340.74 525.66,347.75C520.36,354.76 513.43,363.75 510.26,367.73C499.96,380.66 496.76,385.09 497.34,385.67C497.65,385.98 503.9,385.66 511.23,384.95C523.47,383.78 524.79,383.82 527.19,385.39C529.78,387.08 529.92,387.04 537.14,382.55C543.57,378.54 544.55,378.2 545.1,379.74C545.45,380.71 545.34,382.54 544.87,383.82C544.39,385.09 544.01,387.79 544.03,389.82C544.06,393.25 543.19,394.34 530.9,406.03L517.73,418.57L520.47,426.53C521.98,430.91 523.83,435.69 524.59,437.16C526.06,440.01 525.4,439.82 557.72,447.07C565,448.71 571.57,450.28 572.33,450.57C573.09,450.86 575.87,449.46 578.51,447.44C581.15,445.43 585.6,442.28 588.4,440.45C599.15,433.44 598.87,433.91 600,420.74L601.01,408.98L595.95,398.91L595.63,398.27C593.08,393.18 591.71,390.45 592.39,389.77C593.17,388.99 596.66,390.93 604.18,395.1L605,395.55L614.5,400.81L615.21,406.16C615.6,409.1 616.1,418.56 616.33,427.19L616.74,442.88L605.62,451.14C599.51,455.68 591.21,462.09 587.19,465.38L579.87,471.37L566.19,468.06C558.66,466.24 549.88,463.92 546.68,462.91C540.72,461.02 529.02,458.63 528.51,459.19C528.01,459.72 532.12,482.47 532.83,483.12C534.1,484.3 566.25,496 568.23,496C569.32,496 574.55,492.64 579.85,488.54C585.16,484.43 595.07,477 601.88,472.02C608.7,467.04 615.67,461.82 617.38,460.42C619.1,459.01 625.67,453.99 632,449.24C640.89,442.58 644.52,440.45 648,439.87C650.47,439.46 661.5,439.09 672.5,439.06C702.56,438.96 717.58,438.02 719.78,436.1C720.79,435.22 722.33,434.05 723.21,433.5C725.37,432.15 738.33,421.49 750.25,411.26C754.7,407.44 757.27,405.69 758.61,403.27C760.37,400.07 760,395.7 759.01,383.87C758.84,381.82 758.65,379.54 758.45,377C756.31,350.13 755.09,330.57 755.53,330.13C755.74,329.93 758.74,331.31 762.2,333.2C768.14,336.43 768.59,336.94 770.13,342.06C771.03,345.05 772.52,351.1 773.43,355.5C776.82,371.87 778.95,381.44 779.55,382.95C780.61,385.62 785.12,406.35 785.32,409.44C785.46,411.79 784.79,412.87 782,414.76C780.08,416.06 774.84,420.36 770.36,424.32C765.89,428.27 758.01,434.95 752.86,439.16C747.71,443.37 738.48,451.24 732.35,456.66C719.3,468.18 707.56,478.2 697.62,486.3C696.93,486.86 696.29,487.38 695.68,487.87C689.74,492.7 687.66,494.39 687.67,496.06C687.67,497.14 688.54,498.21 689.79,500.1C691.41,502.52 693.86,506.57 695.25,509.09C696.64,511.61 700.68,518.14 704.23,523.59C707.77,529.04 711.92,535.75 713.44,538.5C714.97,541.25 717.52,545.44 719.11,547.8C720.7,550.17 722,552.5 722,552.99C722,555.76 724.9,554.33 732.53,547.81C737.23,543.79 743.42,538.55 746.28,536.16C749.15,533.77 755.55,528.29 760.5,523.98C774.57,511.72 775.45,511 776.36,511C776.83,511 776.96,514.49 776.64,518.75C776.33,523.01 775.78,530.59 775.42,535.59L774.77,544.69L764.72,553.09C759.2,557.72 751.57,564.2 747.76,567.5C743.96,570.8 736.04,577.42 730.17,582.22C724.3,587.01 719.05,590.95 718.5,590.96C717.95,590.98 711.69,581.66 704.59,570.25C697.49,558.84 688.87,545 685.43,539.5C681.99,534 674.16,521.17 668.03,511C661.28,499.79 656.02,492.13 654.69,491.56C653.49,491.04 647.89,488.45 642.25,485.81C636.62,483.16 631.14,481 630.08,481C629.02,481 626.88,482.03 625.33,483.28C623.77,484.53 620.54,486.88 618.14,488.49C615.74,490.11 613.55,492.01 613.28,492.71C613.01,493.42 612.38,494 611.88,494C611.38,494 609.03,495.46 606.66,497.25C599.2,502.87 583.71,514.67 578.35,518.82L573.21,522.81L564.85,519.83C560.26,518.18 552.9,515.56 548.5,513.99C540.35,511.09 534.09,508.65 530.5,506.98C529.4,506.47 525.8,505.09 522.5,503.91C519.2,502.73 516,501.25 515.38,500.63C514.77,500.01 513.07,492.52 511.6,484C510.13,475.48 508.74,467.6 508.5,466.5C508.25,465.27 504.77,462.51 499.45,459.31L490.82,454.13L480.06,421.81C474.15,404.04 469.01,388.29 468.65,386.82C468.09,384.54 469.01,382.89 474.76,375.82C478.48,371.24 483.31,365.02 485.48,362C487.65,358.98 489.7,356.27 490.03,356C490.74,355.4 509.79,331.46 515.5,323.99C517.7,321.11 521.39,316.4 523.69,313.52L527.88,308.28L529.78,280.52L534.64,276.1C537.31,273.67 550.08,262.28 563,250.79C589.44,227.29 586.99,230.69 596.06,205C604.45,181.25 606.13,177 607.13,177C608,177 616.85,181.65 646.5,197.67C652,200.65 658.08,203.85 660,204.79C661.92,205.73 663.79,206.9 664.14,207.38C664.5,207.88 674.27,206.63 686.14,204.59L707.5,200.91L718.83,188.95L730.16,177L801.74,177L802.89,181.25C803.52,183.59 804.9,191.12 805.96,198C807.02,204.88 808.54,214.32 809.34,219C813.29,241.98 813.4,243.32 811.63,246.74L809.98,249.94L819.74,257.68C825.11,261.93 832.98,268.36 837.23,271.96C856.22,288.02 861.19,292.15 873.96,302.5C897.13,321.28 900.43,323.72 901.17,326.78C901.36,327.56 901.38,328.37 901.52,329.5C902.28,335.53 903.63,362 903.18,362C902.56,362 883.61,346.22 869.56,334C866.72,331.52 859.77,325.67 854.11,321C848.46,316.33 840.16,309.34 835.67,305.48C831.18,301.61 825.03,296.45 822,293.99C818.97,291.54 814.7,287.84 812.5,285.77C810.3,283.71 807.92,282.02 807.22,282.01C806.52,282 803.72,283.69 801.01,285.75C798.3,287.81 792.58,292.06 788.29,295.18C784.01,298.31 775.6,304.54 769.61,309.03C760.87,315.58 758.85,316.73 759.38,314.85C759.51,314.41 759.63,314 759.74,313.62C760.18,312.15 760.51,311.04 760.5,309.93C760.46,306.14 756.41,302.4 738.85,284.8C728.77,274.68 717.2,263.4 710.39,256.99C713.18,259.34 715.03,260.51 715.54,260.21C716.22,259.82 724.96,251.62 734.96,242C744.96,232.38 753.79,224.14 754.57,223.7C754.63,223.67 754.69,223.63 754.74,223.6C755.03,223.44 755.26,223.3 755.44,223.35C756.32,223.61 755.87,228.36 753.27,256.18L752.95,259.6C751.26,277.54 750.03,293.05 750.2,294.05C750.36,295.06 752.97,298.75 756,302.25L761.49,308.61L762.61,305.55C763.22,303.87 766.76,295.3 770.47,286.5ZM560,361.17C560,361.63 559.55,362 559,362C558.45,362 558,361.77 558,361.48C558,360.6 578.21,324.46 587.9,308L593.5,298.5L622.5,295.9C638.45,294.47 655.55,292.98 660.5,292.6L669.5,291.9L664,295.37C660.97,297.28 657.38,299.7 656,300.76C654.62,301.81 651.36,303.92 648.74,305.44C645.69,307.21 641.75,311.08 637.74,316.24C634.31,320.67 629.22,327.04 626.44,330.39L621.37,336.5L606.44,337C589.71,337.56 590.43,337.3 577.31,347.63C573.9,350.31 568.62,354.27 565.56,356.42C562.5,358.58 560,360.72 560,361.17ZM824.25,489.25C821.77,492.96 819.68,495.94 819.62,495.86C819.55,495.79 818.38,495.55 817,495.34C814.19,494.9 806.27,493.18 791.5,489.79L781.51,487.5L780.84,483.5C780.47,481.3 779.62,473.83 778.94,466.91L777.71,454.32L784.07,446.58L790.42,438.84L802.87,439.22C814.34,439.58 815.37,439.77 816.07,441.67C816.71,443.4 815.83,444.49 810.67,448.37C807.28,450.91 802.79,454.53 800.69,456.41L796.88,459.82L797.58,465.99C798.38,473.06 798.74,473.33 808.67,474.33L814.85,474.95L819.15,467.98C821.52,464.14 823.71,461 824.01,461C824.32,461 826.94,463.41 829.85,466.35L835.13,471.69L831.95,477.1C830.2,480.07 826.74,485.54 824.25,489.25ZM819.05,355.57C820.25,362.78 820.79,368.61 820.29,369.11C819.79,369.61 818.57,369.39 817.46,368.61C816.38,367.85 812.57,366.01 809,364.52C805.42,363.03 802.15,361.48 801.73,361.08C801.3,360.68 799.92,353.71 798.66,345.59L796.38,330.84L802.94,327.53C806.55,325.72 812.34,323.04 815.8,321.58L822.1,318.93L832.2,327.72C837.75,332.55 843.63,337.65 845.26,339.05L848.23,341.6L846.56,349.05C843.54,362.46 842.95,365.62 841.4,366.2C840.93,366.38 840.36,366.31 839.6,366.22C839.4,366.2 839.2,366.18 838.97,366.15C834.73,365.73 834.05,364.76 833.96,359C833.79,348.86 832.9,346.76 827.49,343.82C822.32,341.01 818.55,340.31 817.53,341.95C817.2,342.48 817.89,348.61 819.05,355.57ZM864.7,428.66C863.84,430.11 861.39,430.47 860.68,429.25C860.44,428.84 859.04,424.56 857.59,419.75L854.94,411L851.09,411C848.98,411 845.89,410.73 844.24,410.4L841.22,409.79L840.48,416.15C839.86,421.52 839.62,424.17 838.43,424.69C837.31,425.19 835.33,423.77 831.39,420.92L830.73,420.44C826.48,417.38 823,414.31 823,413.63C823,412.38 825.85,403.13 828.67,395.21L830.2,390.91L849.35,391.6C868.96,392.3 869.92,392.53 870.59,396.5C870.68,397.05 872.34,402.55 874.27,408.71C876.83,416.87 877.48,420.16 876.65,420.79C876.02,421.27 873.25,422.93 870.5,424.49C867.75,426.05 865.14,427.92 864.7,428.66ZM722,410.4L716.5,418L712,417.81C709.53,417.71 704.95,417.46 701.83,417.26L696.16,416.91L695.49,409.7L695.48,409.59C694.9,403.42 694.62,400.37 695.79,398.08C696.94,395.84 699.48,394.31 704.5,391.28C709.45,388.29 715.23,384.47 717.34,382.8C721.86,379.22 722.49,379.42 730.84,386.98L736.17,391.81L731.84,397.31C729.45,400.34 725.03,406.23 722,410.4ZM729.42,357.51C724.17,359.98 719.71,362 719.5,362C718.87,362 718.39,360.79 716.4,354.13C714.62,348.15 714.22,347.64 710,345.78C707.53,344.7 703.79,343.63 701.69,343.42C694.17,342.65 694.34,341.11 702.92,332.58L710.68,324.87L723.09,331.26C736.74,338.29 735.89,337.25 738.32,349.76L738.96,353.03L729.42,357.51ZM659,384.68C654.33,386.16 649.94,387.56 649.24,387.79C648.02,388.21 645.8,384.02 644.51,378.88C643.94,376.63 644.85,375.64 653.46,369.19C663.69,361.51 664.14,361.37 674.79,362.65L680.08,363.29L679.79,370.89L679.5,378.5L673.5,380.25C670.2,381.21 663.67,383.21 659,384.68ZM624.69,218.98C635.03,216.22 644.14,213.73 644.92,213.44C646.78,212.77 644.93,211.48 633.4,205.41C628.5,202.83 622.11,199.44 619.19,197.86C618.8,197.66 618.44,197.46 618.11,197.28C614.89,195.54 613.83,194.96 613.33,195.28C613.03,195.47 612.94,195.98 612.71,196.75C612.42,197.71 610.12,204.1 607.59,210.94C605.07,217.78 603,223.52 603,223.69C603,224.55 607.45,223.58 624.69,218.98ZM745.56,502.41C742.49,508.79 739.64,513.96 739.24,513.92C738.83,513.88 735.91,512.94 732.75,511.84L727,509.83L727,498.92C727,489.33 727.24,487.76 729,486C730.1,484.9 731,484.24 731,484.53C731,485.28 737.17,482.05 739.29,480.18C742.72,477.18 744.39,477.79 746.41,482.79C747.45,485.38 748.94,488.25 749.73,489.16C750.99,490.63 750.5,492.17 745.56,502.41ZM622.18,317.09C625.38,312.47 628,308.39 628,308.03C628,307.68 624.74,307.87 620.76,308.47L613.52,309.56L612.92,313.29C612.58,315.34 612.07,317.26 611.78,317.55C611.49,317.84 609.85,316.91 608.15,315.47C604.2,312.15 600.62,312.44 600.2,316.11C599.77,319.77 604.17,324.76 608.29,325.3C615.52,326.25 616.06,325.93 622.18,317.09ZM504.63,444.93C507.88,447.48 508.66,447.51 509.94,445.12C510.69,443.71 510.19,440.86 507.98,433.87C506.35,428.72 504.67,424.05 504.26,423.49C503.35,422.29 496.34,417 495.65,417C495.01,417 496.55,422.74 499.57,431.67C500.91,435.61 502,439.74 502,440.85C502,441.95 503.19,443.79 504.63,444.93ZM671.25,421.34C669.97,422.12 655,423.27 655,422.59C655,422.24 656.61,418.76 658.57,414.86C662.02,408.01 662.24,407.8 665.19,408.39C666.87,408.72 669.09,409 670.12,409C671.75,409 672,409.8 672,414.94C672,418.21 671.66,421.09 671.25,421.34Z" fill="#FAFAF9" fill-rule="nonzero"/>
    </g>
</svg>
