<svg width="1024" height="1024" viewBox="0 0 1024 1024" fill="none" xmlns="http://www.w3.org/2000/svg">
<path d="M711.215 270.867C702.476 292.636 694.138 313.835 692.702 317.991L690.064 325.56L677.133 309.828C669.997 301.17 663.849 292.042 663.472 289.544C663.072 287.07 665.969 248.703 669.949 204.326L670.703 195.866C676.827 127.048 677.887 115.298 675.814 114.655C675.39 114.532 674.848 114.878 674.165 115.274C674.048 115.348 673.906 115.447 673.765 115.521C671.928 116.609 651.131 136.992 627.577 160.789C604.024 184.586 583.439 204.87 581.837 205.835C580.023 206.948 571.238 199.947 558.543 187.282L538.122 166.973L557.271 145.947C567.776 134.37 590.67 109.065 608.146 89.6712L639.896 54.4214H689.192C726.618 54.4214 738.725 55.1635 739.384 57.5135C739.855 59.2203 743.577 82.8686 747.651 110.079L755.094 159.552L741.103 195.421C733.402 215.16 719.953 249.099 711.215 270.867ZM367.857 103.845C327.251 115.224 316.77 117.624 316.77 115.496C316.77 115.076 321.645 100.877 327.581 83.957C333.54 67.0371 338.957 51.2303 339.64 48.8556C340.182 46.9509 340.394 45.6893 341.1 45.2193C342.278 44.4277 344.774 45.8625 352.359 50.1667C353.136 50.6119 353.984 51.1067 354.902 51.6014C361.78 55.5098 376.83 63.8955 388.371 70.2776C415.528 85.2928 419.885 88.4838 415.505 90.1412C413.667 90.8585 392.211 97.0179 367.857 103.845ZM361.945 346.537C347.53 368.404 346.258 369.196 329.229 366.846C319.525 365.51 309.162 353.166 310.175 344.113C311.164 335.034 319.596 334.317 328.9 342.53C332.904 346.092 336.766 348.392 337.45 347.675C338.133 346.957 339.334 342.208 340.134 337.137L341.548 327.91L358.6 325.214C367.974 323.73 375.653 323.26 375.653 324.125C375.653 325.016 369.482 335.109 361.945 346.537Z" fill="#D97706"/>
<path d="M711.215 270.867C719.953 249.098 733.402 215.16 741.104 195.42L755.094 159.552L747.651 110.078C743.577 82.8679 739.855 59.2196 739.384 57.5128C738.725 55.1628 726.618 54.4207 689.192 54.4207H639.896L608.146 89.6705C590.67 109.064 567.776 134.37 557.271 145.946L538.122 166.973L554.445 183.225L537.816 167.517L506.184 169.224C488.802 170.188 474.576 170.04 474.576 168.927C474.576 167.789 481.477 158.661 489.909 148.593C498.318 138.525 504.748 129.818 504.182 129.224C503.617 128.606 494.855 129.818 484.727 131.896C474.623 133.974 449.916 138.55 429.825 142.112C409.734 145.65 387.5 149.756 380.363 151.24C331.867 161.308 325.696 163.064 318.489 168.853C308.974 176.472 247.83 233.143 217.446 262.456L194.67 284.447L193.116 345.497L177.241 365.064C168.526 375.849 161.366 386.041 161.343 387.748C161.343 389.454 160.424 390.84 159.317 390.84C158.21 390.84 147.093 405.038 134.61 422.379C122.126 439.719 105.804 461.958 98.3378 471.803C74.0781 503.787 66.541 514.746 67.9071 516.18C68.6372 516.947 83.358 516.156 100.622 514.399C129.452 511.505 132.561 511.604 138.213 515.488C144.314 519.668 144.643 519.569 161.649 508.463C176.793 498.543 179.102 497.702 180.397 501.512C181.221 503.911 180.962 508.438 179.855 511.604C178.725 514.746 177.83 521.425 177.877 526.446C177.948 534.931 175.898 537.627 146.952 566.544L115.932 597.564L122.386 617.255C125.942 628.089 130.299 639.913 132.09 643.55C135.552 650.6 133.997 650.13 210.121 668.064C227.268 672.121 242.742 676.004 244.532 676.722C246.322 677.439 252.87 673.976 259.088 668.979C265.306 664.007 275.787 656.215 282.382 651.688C307.702 634.348 307.042 635.51 309.704 602.932L312.083 573.842L300.165 548.932L299.411 547.349C293.405 534.758 290.178 528.005 291.78 526.322C293.617 524.393 301.837 529.192 319.549 539.507L321.48 540.62L343.856 553.632L345.528 566.866C346.447 574.138 347.625 597.539 348.166 618.887L349.132 657.699L322.941 678.132C308.55 689.362 289.001 705.218 279.532 713.357L262.291 728.174L230.071 719.986C212.335 715.484 191.655 709.745 184.118 707.247C170.081 702.571 142.524 696.659 141.322 698.045C140.145 699.356 149.825 755.632 151.497 757.239C154.489 760.158 230.212 789.1 234.875 789.1C237.443 789.1 249.761 780.789 262.244 770.647C274.751 760.48 298.092 742.101 314.132 729.782C330.195 717.463 346.612 704.55 350.639 701.087C354.69 697.599 370.165 685.181 385.074 673.432C406.013 656.957 414.563 651.688 422.759 650.253C428.577 649.239 454.556 648.324 480.464 648.25C551.265 648.002 586.642 645.677 591.824 640.928C594.203 638.751 597.83 635.857 599.902 634.496C604.99 631.157 635.515 604.787 663.59 579.482C674.071 570.032 680.124 565.703 683.281 559.717C687.426 551.801 686.554 540.991 684.223 511.728C683.822 506.657 683.375 501.017 682.904 494.734C677.863 428.266 674.99 379.881 676.026 378.793C676.521 378.298 683.587 381.712 691.736 386.387C705.727 394.377 706.787 395.639 710.414 408.304C712.534 415.7 716.043 430.666 718.186 441.55C726.171 482.044 731.188 505.717 732.601 509.452C735.098 516.057 745.72 567.336 746.191 574.98C746.521 580.793 744.943 583.464 738.371 588.139C733.849 591.355 721.507 601.992 710.956 611.788C700.427 621.559 681.867 638.083 669.737 648.497C657.608 658.911 635.868 678.379 621.43 691.786C590.693 720.283 563.042 745.069 539.63 765.106C538.005 766.491 536.497 767.777 535.061 768.989C521.07 780.937 516.171 785.118 516.194 789.249C516.194 791.92 518.244 794.567 521.188 799.242C525.003 805.229 530.774 815.247 534.048 821.481C537.322 827.714 546.837 843.867 555.198 857.349C563.536 870.83 573.311 887.429 576.891 894.231C580.495 901.034 586.501 911.398 590.246 917.236C593.991 923.099 597.052 928.863 597.052 930.075C597.052 936.927 603.883 933.389 621.854 917.261C632.924 907.317 647.503 894.355 654.24 888.443C660.999 882.531 676.073 868.975 687.732 858.313C720.871 827.986 722.944 826.205 725.087 826.205C726.194 826.205 726.501 834.838 725.747 845.376C725.017 855.914 723.721 874.665 722.873 887.033L721.343 909.543L697.671 930.322C684.67 941.775 666.699 957.804 657.725 965.968C648.775 974.131 630.121 990.506 616.295 1002.38C602.47 1014.23 590.104 1023.98 588.809 1024C587.513 1024.05 572.769 1000.99 556.046 972.77C539.324 944.546 519.021 910.31 510.919 896.705C502.816 883.1 484.374 851.363 469.936 826.205C454.038 798.475 441.649 779.527 438.516 778.117C435.69 776.831 422.5 770.424 409.216 763.894C395.956 757.338 383.048 751.995 380.552 751.995C378.055 751.995 373.015 754.543 369.364 757.635C365.69 760.727 358.082 766.54 352.429 770.523C346.777 774.53 341.618 779.23 340.983 780.962C340.347 782.718 338.863 784.153 337.685 784.153C336.507 784.153 330.972 787.764 325.39 792.192C307.82 806.094 271.336 835.284 258.711 845.549L246.605 855.419L226.914 848.048C216.104 843.966 198.768 837.485 188.405 833.602C169.209 826.428 154.465 820.392 146.009 816.261C143.419 815 134.939 811.586 127.167 808.667C119.394 805.748 111.857 802.087 110.397 800.553C108.96 799.02 104.956 780.492 101.494 759.416C98.0316 738.341 94.7577 718.848 94.1924 716.127C93.6036 713.084 85.4071 706.257 72.8769 698.341L52.5505 685.528L27.2072 605.579C13.2873 561.622 1.18099 522.661 0.333073 519.025C-0.985904 513.385 1.18103 509.304 14.7241 491.815C23.4859 480.485 34.862 465.099 39.9731 457.629C45.0841 450.158 49.9125 443.455 50.6897 442.787C52.362 441.302 97.2308 382.083 110.68 363.605C115.861 356.48 124.552 344.829 129.97 337.705L139.838 324.743L144.314 256.074L155.76 245.141C162.049 239.13 192.126 210.954 222.557 182.532C284.832 124.401 279.061 132.811 300.424 69.2627C320.185 10.5131 324.142 0 326.497 0C328.546 0 349.391 11.5026 419.226 51.1307C432.18 58.5023 446.501 66.418 451.023 68.7432C455.545 71.0685 459.95 73.9627 460.774 75.1501C461.622 76.3869 484.633 73.2948 512.591 68.2485L562.9 59.1454L589.586 29.5603L616.272 0H784.865L787.574 10.5131C789.058 16.3015 792.308 34.9282 794.805 51.947C797.301 68.9659 800.882 92.3173 802.766 103.894C812.069 160.739 812.328 164.054 808.159 172.514L804.273 180.429L827.261 199.576C839.909 210.089 858.445 225.994 868.455 234.9C913.183 274.627 924.889 284.843 954.966 310.445C1009.54 356.901 1017.31 362.937 1019.05 370.506C1019.5 372.436 1019.55 374.439 1019.88 377.234C1021.67 392.151 1024.85 457.629 1023.79 457.629C1022.33 457.629 977.695 418.594 944.603 388.366C937.914 382.231 921.544 367.76 908.213 356.208C894.906 344.656 875.357 327.365 864.781 317.817C854.206 308.244 839.721 295.48 832.584 289.394C825.447 283.334 815.39 274.181 810.209 269.061C805.027 263.965 799.421 259.785 797.772 259.76C796.124 259.735 789.529 263.916 783.146 269.011C776.763 274.107 763.291 284.62 753.186 292.338C743.106 300.081 723.297 315.492 709.189 326.598C688.604 342.801 683.846 345.646 685.094 340.995C685.4 339.907 685.683 338.893 685.942 337.953C686.978 334.316 687.756 331.571 687.732 328.825C687.638 319.45 678.099 310.198 636.739 266.661C612.998 241.628 585.747 213.725 569.707 197.869C576.279 203.682 580.636 206.576 581.837 205.834C583.439 204.869 604.024 184.585 627.577 160.788C651.131 136.992 671.928 116.609 673.765 115.52C673.906 115.446 674.048 115.347 674.165 115.273C674.849 114.877 675.39 114.531 675.814 114.655C677.887 115.298 676.827 127.048 670.703 195.865L669.95 204.325C665.969 248.703 663.072 287.069 663.472 289.543C663.849 292.041 669.997 301.169 677.133 309.827L690.064 325.559L692.702 317.99C694.139 313.834 702.476 292.635 711.215 270.867ZM215.491 455.576C215.491 456.713 214.431 457.629 213.136 457.629C211.84 457.629 210.781 457.06 210.781 456.342C210.781 454.166 258.382 364.767 281.205 324.051L294.394 300.551L362.698 294.119C400.266 290.582 440.542 286.896 452.201 285.956L473.398 284.225L460.444 292.808C453.308 297.533 444.852 303.519 441.602 306.141C438.351 308.739 430.673 313.958 424.502 317.718C417.318 322.096 408.038 331.669 398.593 344.434C390.515 355.392 378.526 371.149 371.978 379.436L360.037 394.55L324.872 395.787C285.468 397.172 287.163 396.529 256.262 422.082C248.23 428.712 235.794 438.507 228.587 443.826C221.379 449.169 215.491 454.462 215.491 455.576ZM837.884 772.403C832.042 781.58 827.12 788.952 826.978 788.754C826.814 788.581 824.058 787.987 820.807 787.468C814.189 786.379 795.535 782.125 760.747 773.739L737.217 768.074L735.639 758.179C734.768 752.737 732.766 734.259 731.164 717.141L728.267 685.998L743.247 666.852L758.203 647.705L787.527 648.645C814.542 649.536 816.968 650.006 818.617 654.706C820.124 658.985 818.052 661.682 805.898 671.279C797.914 677.563 787.338 686.517 782.392 691.168L773.419 699.603L775.067 714.865C776.952 732.354 777.799 733.022 801.188 735.496L815.743 737.03L825.871 719.788C831.454 710.289 836.612 702.522 837.318 702.522C838.048 702.522 844.219 708.483 851.073 715.756L863.509 728.965L856.019 742.348C851.898 749.695 843.748 763.226 837.884 772.403ZM825.636 441.723C828.462 459.558 829.734 473.98 828.556 475.216C827.379 476.453 824.505 475.909 821.891 473.98C819.347 472.1 810.373 467.548 801.965 463.862C793.533 460.177 785.831 456.342 784.842 455.353C783.829 454.363 780.579 437.122 777.611 417.036L772.241 380.549L787.692 372.361C796.194 367.884 809.832 361.255 817.981 357.643L832.82 351.088L856.608 372.831C869.68 384.779 883.53 397.395 887.369 400.858L894.364 407.166L890.431 425.595C883.318 458.767 881.928 466.583 878.277 468.018C877.17 468.463 875.828 468.29 874.038 468.068C873.567 468.018 873.095 467.969 872.554 467.894C862.567 466.855 860.966 464.456 860.754 450.208C860.353 425.125 858.257 419.93 845.515 412.657C833.338 405.706 824.458 403.975 822.056 408.032C821.279 409.343 822.904 424.506 825.636 441.723ZM933.156 622.523C931.131 626.11 925.36 627.001 923.688 623.983C923.122 622.969 919.825 612.381 916.41 600.483L910.168 578.838H901.1C896.131 578.838 888.853 578.171 884.966 577.354L877.853 575.845L876.11 591.578C874.65 604.861 874.085 611.417 871.282 612.703C868.644 613.94 863.98 610.427 854.701 603.377L853.146 602.19C843.136 594.62 834.939 587.026 834.939 585.344C834.939 582.252 841.652 559.371 848.294 539.779L851.898 529.142L897.002 530.849C943.19 532.581 945.451 533.15 947.029 542.97C947.241 544.331 951.151 557.936 955.696 573.174C961.726 593.359 963.257 601.497 961.302 603.056C959.818 604.243 953.294 608.349 946.817 612.208C940.34 616.067 934.192 620.693 933.156 622.523ZM597.052 577.354L584.098 596.154L573.499 595.684C567.682 595.437 556.894 594.818 549.546 594.324L536.191 593.458L534.613 575.623L534.589 575.351C533.223 560.088 532.564 552.543 535.32 546.879C538.028 541.338 544.011 537.553 555.834 530.058C567.493 522.661 581.107 513.212 586.077 509.081C596.723 500.225 598.207 500.72 617.874 519.421L630.427 531.369L620.229 544.974C614.6 552.469 604.189 567.039 597.052 577.354ZM614.529 446.522C602.163 452.632 591.659 457.629 591.164 457.629C589.68 457.629 588.55 454.636 583.863 438.161C579.67 423.368 578.728 422.107 568.789 417.506C562.971 414.834 554.162 412.187 549.216 411.668C531.504 409.763 531.904 405.954 552.113 384.853L570.39 365.781L599.62 381.588C631.77 398.978 629.768 396.405 635.491 427.351L636.999 435.44L614.529 446.522ZM448.668 513.731C437.668 517.393 427.328 520.856 425.68 521.425C422.806 522.464 417.577 512.099 414.539 499.384C413.196 493.818 415.34 491.37 435.619 475.414C459.714 456.417 460.774 456.07 485.858 459.237L498.318 460.82L497.635 479.62L496.952 498.444L482.82 502.773C475.047 505.148 459.667 510.095 448.668 513.731ZM367.857 103.845C392.211 97.0173 413.667 90.8579 415.505 90.1405C419.886 88.4831 415.528 85.2921 388.371 70.2769C376.83 63.8949 361.78 55.5091 354.902 51.6007C353.984 51.106 353.136 50.6113 352.359 50.166C344.775 45.8618 342.278 44.4271 341.1 45.2187C340.394 45.6887 340.182 46.9502 339.64 48.855C338.957 51.2297 333.54 67.0364 327.581 83.9563C321.645 100.876 316.77 115.075 316.77 115.496C316.77 117.623 327.251 115.223 367.857 103.845ZM652.544 804.957C645.313 820.739 638.6 833.527 637.658 833.428C636.692 833.329 629.815 831.004 622.372 828.283L608.829 823.311V796.323C608.829 772.601 609.394 768.717 613.54 764.364C616.131 761.643 618.25 760.01 618.25 760.727C618.25 762.583 632.783 754.593 637.776 749.967C645.855 742.546 649.788 744.055 654.546 756.423C656.995 762.83 660.505 769.929 662.365 772.18C665.333 775.817 664.179 779.626 652.544 804.957ZM361.945 346.536C369.482 335.108 375.653 325.015 375.653 324.125C375.653 323.259 367.974 323.729 358.6 325.213L341.548 327.91L340.135 337.136C339.334 342.207 338.133 346.957 337.45 347.674C336.767 348.391 332.904 346.091 328.9 342.529C319.596 334.316 311.164 335.034 310.175 344.112C309.162 353.166 319.525 365.509 329.229 366.845C346.258 369.195 347.53 368.403 361.945 346.536ZM85.0774 662.77C92.7322 669.078 94.5693 669.152 97.5841 663.24C99.3506 659.752 98.1729 652.702 92.9677 635.411C89.1285 622.672 85.1716 611.12 84.2059 609.735C82.0626 606.766 65.5518 593.68 63.9266 593.68C62.4192 593.68 66.0464 607.879 73.1595 629.969C76.3156 639.715 78.8829 649.932 78.8829 652.677C78.8829 655.399 81.6857 659.95 85.0774 662.77ZM477.52 604.416C474.505 606.346 439.246 609.19 439.246 607.508C439.246 606.642 443.038 598.034 447.655 588.387C455.781 571.442 456.299 570.923 463.247 572.382C467.204 573.199 472.433 573.891 474.859 573.891C478.698 573.891 479.287 575.87 479.287 588.585C479.287 596.674 478.486 603.798 477.52 604.416Z" fill="#292524"/>
</svg>
